<?xml version="1.0" encoding="UTF-8" standalone="no"?>
<!DOCTYPE svg PUBLIC "-//W3C//DTD SVG 1.1//EN" "http://www.w3.org/Graphics/SVG/1.1/DTD/svg11.dtd">
<svg width="100%" height="100%" viewBox="0 0 4888 2650" version="1.1" xmlns="http://www.w3.org/2000/svg" xmlns:xlink="http://www.w3.org/1999/xlink" xml:space="preserve" xmlns:serif="http://www.serif.com/" style="fill-rule:evenodd;clip-rule:evenodd;stroke-linejoin:round;stroke-miterlimit:2;">
    <g transform="matrix(4.16667,0,0,4.16667,0,0)">
        <path d="M456.828,0.562C464.413,3.578 471.997,6.592 479.581,9.607C478.988,10.185 478.395,10.766 477.803,11.345C470.513,8.332 463.221,5.322 455.931,2.309C456.229,1.728 456.528,1.145 456.828,0.562Z" style="fill:rgb(34,30,31);"/>
        <path d="M712.187,273.257C754.39,272.966 762.092,272.422 777.796,301.239C773.15,312.48 765.617,322.397 768.586,338.932C779.191,342.72 795.486,344.032 803.634,348.991C808.314,369.984 819.293,389.183 824.027,411.625C825.494,411.347 826.96,411.071 828.429,410.793C828.171,407.573 827.915,404.343 827.658,401.118C832.406,403.078 837.127,403.789 841.678,404.79C841.985,403.622 842.291,402.451 842.598,401.286C843.178,401.878 843.757,402.467 844.337,403.061C842.851,404.804 841.37,406.547 839.883,408.287C837.526,409.722 835.163,411.163 832.803,412.602C845.871,408.025 858.994,399.848 862.98,386.571C848.148,376.402 849.162,359.017 844.175,338.897C856.766,339.332 869.365,339.765 881.957,340.201C885.81,348.719 890.634,354.552 895.782,361.449C892.834,367.681 888.982,378.783 890.236,385.999C900.049,391.13 933.053,416.041 933.706,428.673C934.877,428.393 936.054,428.114 937.227,427.833C937.817,427.546 938.407,427.26 938.998,426.974C938.671,408.101 943.48,375.25 939.803,354.91C927.374,355.64 916.74,348.647 907.414,343.12C905.377,334.944 900.203,327.565 897.133,319.276C886.733,291.168 925.283,267.285 945.978,274.115C960.566,278.929 975.245,302.278 985.095,313.228C985.686,312.941 986.275,312.656 986.865,312.369C987.175,310.906 987.481,309.444 987.791,307.983C988.667,308.286 989.54,308.588 990.417,308.89C990.997,309.484 991.577,310.077 992.155,310.668C991.169,320.324 990.18,329.985 989.192,339.64C987.736,339.037 986.281,338.435 984.821,337.832C984.235,337.825 983.648,337.818 983.062,337.812C984.892,331.387 986.724,324.963 988.552,318.539C986.494,319.396 984.431,320.252 982.368,321.109C981.589,329.123 975.603,336.326 978.63,341.282C987.455,352.052 1002.41,338.164 1008.51,341.616C1036.33,359.966 1055.76,409.582 1063.57,448.582C1066.09,461.17 1071.61,494.6 1062.09,502.182C1064.23,510.344 1069.41,514.303 1066.22,525.962C1074.99,527.524 1083.76,529.087 1092.53,530.648C1110.45,532.304 1131.48,530.458 1143.49,532.979C1145.87,551.922 1154.37,614.793 1148.5,634.993C1148.2,634.989 1147.91,634.986 1147.62,634.983C1110.73,633.104 1073.83,631.227 1036.93,629.351C1018.19,629.142 999.431,628.932 980.687,628.722C919.498,618.209 845.799,615.032 776.025,616.762C739.418,615.765 702.798,614.771 666.19,613.774C620.761,618.958 575.793,616.017 535.224,614.068C488.912,611.841 431.312,617.762 392.811,615.992C354.999,617.912 317.174,619.834 279.362,621.753C252.297,625.552 212.462,620.2 185.317,621.58C155.852,623.079 126.249,635.143 97.315,631.144C98.187,631.74 99.06,632.335 99.931,632.932C66.818,633.731 33.695,634.534 0.582,635.332C0.484,612.032 -2.457,530.029 7.173,517.626C24.397,514.156 45.563,507.698 60.052,505.036C60.963,502.116 61.875,499.197 62.786,496.275C70.123,495.188 77.461,494.101 84.797,493.008C84.823,490.664 84.849,488.321 84.876,485.978C76.047,463.841 90.996,450.683 99.518,434.284C112.231,409.82 145.954,354.433 146.447,324.94C143.253,322.265 140.06,319.592 136.868,316.922C136.587,286.964 144.632,261.986 173.539,260.199C177.939,259.927 185.548,258.869 190.216,262.144C190.616,259.862 189.364,261.654 191.126,259.516C192.856,274.039 201.546,284.767 204.774,296.586C205.018,300.984 205.262,305.384 205.504,309.778C202.099,316.757 197.237,321.789 196.46,332.531C187.819,331.483 185.19,329.415 178.904,330.575C177.107,334.071 175.311,337.565 173.513,341.065C179.451,346.317 205.635,402.929 207.861,413.522C209.632,412.368 211.402,411.215 213.173,410.062C212.033,407.124 210.895,404.178 209.756,401.237C211.495,399.661 212.132,398.248 214.199,396.891C213.291,399.52 212.382,402.145 211.474,404.772C212.939,404.789 214.403,404.805 215.868,404.821C220.335,398.425 224.802,392.031 229.267,385.636C228.983,384.752 228.7,383.871 228.417,382.988C225.317,382.33 220.68,381.377 218.791,379.364C215.338,370.159 223.792,346.04 228.888,340.804C244.495,345.545 260.488,345.844 269.139,357.077C266.265,366.956 260.019,372.762 257.411,384.192C259.45,385.093 261.492,385.997 263.531,386.896C267.349,386.12 267.673,385.748 269.723,383.45C266.805,382.537 263.884,381.624 260.965,380.715C265.443,369.94 270.457,363.58 274.452,353.617C270.974,350.356 267.492,347.095 264.013,343.833C271.687,343.823 271.839,341.885 277.235,340.465C277.212,342.515 277.189,344.567 277.167,346.617C273.108,359.901 272.423,376.898 272.251,393.148C273.724,392.578 275.194,392.008 276.665,391.438C276.605,373.029 279.655,356.254 283.388,340.535C296.035,340.448 310.285,335.285 316.052,327.716C314.64,323.013 313.229,318.308 311.815,313.607C308.184,312.229 305.719,310.657 303.976,307.364C300.717,292.795 298.568,263.406 304.575,253.754C314.577,250.057 324.58,246.36 334.582,242.664C334.582,242.664 347.628,247.709 349.464,248.105C353.862,247.861 358.26,247.617 362.657,247.373C372.873,250.339 371.506,275.313 373.639,287.047C374.755,292.042 375.871,297.035 376.988,302.027C374.936,311.767 351.544,322.871 361.664,336.139C364.525,335.935 376.291,337.018 380.09,338.976C386.343,359.912 397.814,381.363 400.444,405.126C407.705,402.964 414.07,395.064 418.199,389.505C417.318,389.496 416.44,389.486 415.561,389.476C415.868,388.306 416.174,387.141 416.48,385.971C421.724,384.835 424.98,385.172 425.377,376.4C423.051,374.618 420.727,372.835 418.405,371.05C420.29,359.648 422.176,348.239 424.061,336.837C425.819,336.857 427.577,336.876 429.335,336.896C437.928,340.364 445.127,341.764 452.964,345.948C457.892,350.691 462.82,355.431 467.747,360.176C464.877,367.249 461.429,371.578 457.016,376.753C457.6,376.76 458.186,376.766 458.773,376.773C460.514,378.259 462.255,379.745 463.996,381.231C467.527,379.804 471.059,378.377 474.591,376.95C474.575,378.416 474.558,379.882 474.542,381.349C476.009,381.072 477.478,380.795 478.947,380.518C482.297,369.128 485.646,357.74 488.996,346.35C493.18,346.702 511.855,340.344 515.481,336.1C515.226,332.582 514.972,329.063 514.718,325.54C507.931,320.422 499.959,309.533 498.308,299.87C506.489,277.735 503.111,272.771 519.861,258.801C536.928,261.077 551.582,281.546 565.285,283.919C564.317,290.835 567.458,298.938 566.827,303.273C565.242,314.168 557.341,327.105 552.362,339.148C556.454,340.078 560.727,339.689 562.869,342.781C567.196,341.975 567.852,341.377 569.949,338.469C568.523,334.934 567.099,331.402 565.673,327.871C583.087,309.417 578.919,224.481 582.897,202.374C585.064,190.331 585.531,170.308 578.926,164.536C563.492,151.043 494.899,128.803 488.047,116.933C486.71,112.385 489.716,103.604 491.759,99.397C487.037,94.415 479.679,94.023 474.291,89.532C470.719,86.554 472.92,81.829 470.024,78.058C465.364,75.663 460.702,73.267 456.042,70.87C455.452,71.157 454.864,71.443 454.274,71.729C454.518,76.986 456.81,75.047 453.337,76.992C453.328,77.871 453.318,78.75 453.308,79.628C450.981,78.137 448.653,76.647 446.325,75.156C447.656,72.211 448.827,72.488 446.383,69.882C437.426,60.993 425.714,56.607 422.083,42.363C422.664,42.663 423.247,42.962 423.83,43.262C425.583,48.047 427.179,49.09 432.54,50.391C430.553,42.291 425.059,41.149 423.958,31.836C424.872,28.625 425.788,25.411 426.702,22.198C427.285,22.498 427.868,22.798 428.449,23.097C430.725,29.275 432.999,35.455 435.274,41.633C436.743,41.356 438.21,41.079 439.679,40.802C439.692,39.63 439.705,38.46 439.718,37.286C437.161,30.227 434.602,23.166 432.045,16.106C432.336,16.109 432.629,16.113 432.923,16.116C436.128,17.617 439.335,19.118 442.542,20.618C445.284,30.902 443.902,40.979 452.812,45.344C452.014,38.011 451.218,30.677 450.42,23.343C451.597,23.064 452.771,22.783 453.947,22.503C454.232,23.093 454.519,23.682 454.805,24.271C460.214,38.394 465.623,52.521 471.031,66.642C471.92,65.774 472.809,64.904 473.697,64.036C473.707,63.156 473.716,62.278 473.726,61.399C474.02,61.402 474.313,61.405 474.606,61.409C474.573,64.337 474.54,67.268 474.507,70.197C473.053,69.302 471.598,68.406 470.142,67.512C469.554,67.798 468.964,68.085 468.375,68.37C468.358,69.836 468.342,71.301 468.326,72.765C477.942,77.266 487.563,81.769 497.181,86.272C497.775,85.4 498.372,84.528 498.968,83.655C498.682,83.067 498.395,82.477 498.108,81.887C492.865,79.193 487.622,76.497 482.378,73.802C520.643,82.795 560.484,122.413 604.063,117.353C604.05,118.524 604.037,119.696 604.024,120.868C609.877,119.955 613.457,117.825 616.407,113.974C609.618,106.734 602.096,86.597 592.213,76.789C598.819,62.506 605.422,48.221 612.027,33.941C628.415,35.882 644.802,37.823 661.184,39.764C664.136,42.308 663.234,42.929 661.106,46.795C670.529,45.728 676.294,50.42 680.324,57.558C671.761,69.072 677.238,96.191 670.954,109.311C658.283,113.114 657.613,119.901 649.687,124.894C649.103,124.596 648.519,124.295 647.937,123.996C647.66,122.527 647.382,121.06 647.105,119.592C644.737,122.202 642.362,124.812 639.987,127.422C645.002,131.811 648.455,130.781 650.438,136.328C653.608,135.221 655.188,135.589 660.103,136.436C658.337,137.297 656.568,138.155 654.799,139.015C655.385,139.021 655.972,139.028 656.558,139.034C677.425,148.479 700.283,155.211 723.996,160.883C733.925,163.26 751.729,162.702 755.593,164.754C785.666,177.693 786.479,154.492 806.831,141.595C807.124,141.598 807.418,141.602 807.71,141.605C807.075,145.992 806.44,150.38 805.807,154.767C807.57,154.202 809.332,153.635 811.098,153.068C813.482,142.585 814.32,136.726 816.635,129.399C826.074,128.957 829.159,133.937 834.194,131.353C830.675,140.312 817.945,146.556 811.967,153.958C812.835,155.139 813.697,156.322 814.564,157.502C816.451,152.276 825.902,148.849 831.398,145.386C831.378,147.144 831.359,148.901 831.339,150.659C828.859,157.929 823.391,160.998 815.42,159.27C816.571,161.334 817.72,163.398 818.871,165.461C824.17,165.569 822.648,165.13 826.79,164.671C825.881,167.296 824.972,169.923 824.063,172.551C812.898,175.648 801.726,178.746 790.562,181.844C783.192,183.613 765.686,169.156 758.091,177.087C757.782,178.547 757.471,180.009 757.162,181.47C757.452,181.766 757.742,182.062 758.032,182.359C768.271,183.645 778.514,184.933 788.753,186.219C784.459,187.149 787.627,186.551 785.209,188.817C775.849,187.54 766.486,186.263 757.123,184.987C755.085,191.907 753.815,196.766 749.035,200.717C723.185,200.061 693.041,179.211 670.168,179.618C669.548,182.54 668.929,185.465 668.309,188.387C677.523,192.227 677.377,235.959 677.301,249.136C677,299.784 683.742,345.342 681.751,401.242C683.22,400.965 684.689,400.688 686.156,400.412C691.637,381.675 692.914,359.873 702.595,345.224C710.181,344.558 714.543,341.56 720.24,339.27C720.247,338.684 720.253,338.097 720.259,337.51C708.868,338.496 704.984,333.392 700.176,325.859C699.942,320.581 699.707,315.307 699.473,310.033C699.773,309.451 700.073,308.867 700.373,308.283C700.955,308.583 701.539,308.883 702.119,309.183C702.089,311.818 702.059,314.454 702.03,317.093C702.913,316.809 703.793,316.526 704.675,316.243C705.848,316.256 707.022,316.269 708.194,316.283C709.524,301.941 710.858,287.596 712.187,273.257Z" style="fill:rgb(34,30,31);"/>
        <path d="M456.622,19.018C466.249,22.641 475.879,26.266 485.505,29.889C485.502,30.181 485.499,30.474 485.496,30.767C478.19,29.222 470.881,27.675 463.574,26.126C463.274,26.71 462.976,27.293 462.676,27.876C462.647,30.512 462.617,33.149 462.588,35.785C460.599,30.198 458.611,24.606 456.622,19.018Z" style="fill:rgb(34,30,31);"/>
        <path d="M698.284,23.479C703.844,24.127 709.402,24.776 714.96,25.423C713.316,32.354 715.211,32.089 713.962,35.961C722.147,37.811 730.33,39.66 738.513,41.509C737.335,42.081 736.155,42.654 734.978,43.228C734.644,40.856 712.162,40.96 707.822,35.012C709.288,35.029 710.754,35.045 712.217,35.061C706.853,30.159 702.393,27.659 698.284,23.479Z" style="fill:rgb(34,30,31);"/>
        <path d="M749.198,29.322C758.84,31.481 768.488,33.64 778.129,35.799C778.127,36.092 778.124,36.385 778.12,36.679C773.512,36.431 775.636,36.177 771.96,37.488C774.585,38.397 777.213,39.305 779.836,40.213C779.834,40.507 779.83,40.798 779.827,41.091C768.407,41.436 751.326,34.95 749.198,29.322Z" style="fill:rgb(34,30,31);"/>
        <path d="M489.04,28.171C497.395,30.08 517.246,33.133 522.319,39.091C512.261,36.063 493.964,36.486 488.152,29.04C488.449,28.749 488.744,28.459 489.04,28.171Z" style="fill:rgb(34,30,31);"/>
        <path d="M463.456,36.674C487.414,42.507 511.377,48.344 535.335,54.179C535.035,54.76 534.735,55.343 534.435,55.926C520.96,54.852 466.622,42.184 463.456,36.674Z" style="fill:rgb(34,30,31);"/>
        <path d="M396.655,36.804C401.2,40.396 406.747,46.891 407.892,53.631C407.593,54.214 407.293,54.796 406.994,55.378C406.411,55.079 405.83,54.779 405.247,54.481C402.077,49.756 398.905,45.034 395.736,40.31C396.042,39.142 396.349,37.975 396.655,36.804Z" style="fill:rgb(34,30,31);"/>
        <path d="M506.244,61.762C515.54,62.562 540.344,66.232 544.795,72.742C531.945,69.083 519.093,65.422 506.244,61.762Z" style="fill:rgb(34,30,31);"/>
        <path d="M844.589,144.654C847.475,148.789 850.358,152.922 853.241,157.055C849.7,159.653 846.152,162.251 842.607,164.848C842.028,164.548 841.445,164.248 840.861,163.95C842.106,157.518 843.347,151.084 844.589,144.654Z" style="fill:rgb(34,30,31);"/>
        <path d="M556.076,164.28C559.16,166.133 560.56,166.971 559.523,170.469C560.787,176.904 546.937,260.012 542.672,262.572C547.139,229.811 551.608,197.04 556.076,164.28Z" style="fill:rgb(34,30,31);"/>
        <path d="M568.925,194.307C566.648,214.495 564.372,234.688 562.094,254.878C562.69,254.006 563.285,253.133 563.881,252.261C563.858,254.311 563.835,256.364 563.813,258.413C563.519,258.41 563.226,258.406 562.935,258.403C562.651,257.522 562.367,256.638 562.085,255.757C562.367,256.638 562.651,257.522 562.935,258.403C562.35,263.834 560.565,270.638 568.05,272.525C568.639,272.238 569.228,271.951 569.818,271.664C570.599,265.6 571.895,253.784 575.336,249.752C575.597,259.226 576.169,269.757 571.536,275.199C571.529,275.786 571.523,276.37 571.516,276.957C570.64,276.653 569.766,276.35 568.888,276.049C564.522,273.656 560.153,271.263 555.785,268.87C560.165,244.019 564.545,219.158 568.925,194.307Z" style="fill:rgb(34,30,31);"/>
        <path d="M528.449,198.249C529.296,199.471 526.357,247.524 520.799,253.538C523.103,235.439 523.336,214.509 528.449,198.249Z" style="fill:rgb(34,30,31);"/>
        <path d="M539.815,203.649C543.918,212.447 536.081,243.853 533.941,257.201C533.65,257.198 533.356,257.194 533.063,257.191C532.481,256.891 531.898,256.591 531.315,256.291C534.147,238.747 536.981,221.194 539.815,203.649Z" style="fill:rgb(34,30,31);"/>
        <path d="M127.138,243.86C134.673,243.916 138.044,244.5 142.076,244.027C142.073,244.318 142.07,244.612 142.066,244.905C136.147,250.406 130.224,255.906 124.304,261.406C125.249,255.559 126.192,249.707 127.138,243.86Z" style="fill:rgb(34,30,31);"/>
        <path d="M685.142,255.376C687.471,256.574 689.8,257.77 692.133,258.971C690.47,276.528 688.812,294.093 687.148,311.651C686.482,292.894 685.812,274.132 685.142,255.376Z" style="fill:rgb(34,30,31);"/>
        <path d="M222.822,254.598C223.333,261.341 223.844,268.087 224.353,274.83C226.029,273.083 226.502,268.857 227.957,266.961C228.105,277.662 225.607,281.084 224.176,290.651C223.595,290.351 223.012,290.051 222.428,289.752C219.585,282.103 216.739,274.453 213.896,266.804C214.199,265.928 214.502,265.052 214.805,264.177C216.774,265.841 216.021,265.787 219.168,266.863C219.778,264.819 220.388,262.775 220.996,260.73C221.272,262.198 221.55,263.666 221.826,265.134C222.159,261.623 222.489,258.11 222.822,254.598Z" style="fill:rgb(34,30,31);"/>
        <path d="M863.3,279.343C866.229,279.376 869.162,279.409 872.089,279.441C872.08,280.319 872.07,281.199 872.06,282.077C869.346,289.078 866.628,296.08 863.915,303.082C863.621,303.078 863.328,303.075 863.035,303.072C863.124,295.162 863.211,287.252 863.3,279.343Z" style="fill:rgb(34,30,31);"/>
        <path d="M771.872,280.956C775.967,281.588 780.062,282.221 784.157,282.852C782.948,286.061 781.743,289.271 780.533,292.48C779.66,291.883 778.788,291.289 777.914,290.692C775.901,287.448 773.888,284.202 771.872,280.956Z" style="fill:rgb(34,30,31);"/>
        <path d="M819.22,291.155C824.606,296.676 822.218,321.481 818.817,327.186C817.648,327.173 816.475,327.161 815.301,327.147C815.321,325.391 815.34,323.631 815.361,321.873C816.649,311.637 817.936,301.394 819.22,291.155Z" style="fill:rgb(34,30,31);"/>
        <path d="M422.766,295.509C433.762,307.643 444.762,319.78 455.759,331.913C443.782,328.852 431.8,325.786 419.824,322.723C420.805,313.653 421.784,304.581 422.766,295.509Z" style="fill:rgb(34,30,31);"/>
        <path d="M212.585,305.462C216.461,306.189 215.843,306.031 217.829,308.158C213.283,321.582 208.738,335.014 204.194,348.44C203.61,348.139 203.029,347.84 202.446,347.54C201.3,345.182 200.154,342.826 199.009,340.47C203.533,328.8 208.06,317.131 212.585,305.462Z" style="fill:rgb(34,30,31);"/>
        <path d="M883.084,318.239C889.09,325.308 894.487,342.307 895.88,352.659C895.586,352.656 895.293,352.652 895.001,352.649C895.007,352.062 895.014,351.476 895.02,350.893C889.213,346.275 884.508,339.789 886.437,332.338C879.987,332.854 873.536,333.368 867.085,333.881C868.287,331.255 869.49,328.634 870.689,326.011C873.604,327.216 876.524,328.419 879.436,329.621C880.651,325.83 881.867,322.03 883.084,318.239Z" style="fill:rgb(34,30,31);"/>
        <path d="M400.578,314.6C402.425,317.053 414.973,334.06 410.907,334.049C409.127,336.083 407.346,338.113 405.566,340.141C403.903,331.629 402.241,323.113 400.578,314.6Z" style="fill:rgb(34,30,31);"/>
        <path d="M687.05,320.437C688.507,321.333 689.959,322.229 691.416,323.126C691.621,337.777 693.833,346.819 688.393,357.369C688.104,357.366 687.81,357.363 687.517,357.359C687.361,345.054 687.206,332.746 687.05,320.437Z" style="fill:rgb(34,30,31);"/>
        <path d="M803.049,322.616C802.981,328.765 802.912,334.919 802.843,341.075C801.67,341.062 800.498,341.049 799.325,341.036C799.335,340.155 799.344,339.276 799.354,338.395C800.586,333.137 801.818,327.877 803.049,322.616Z" style="fill:rgb(34,30,31);"/>
        <path d="M381.154,322.29C382.565,327.289 383.974,332.282 385.382,337.28C385.089,337.277 384.796,337.273 384.504,337.27C382.096,332.125 380.292,331.418 372.258,331.858C375.223,328.672 378.19,325.48 381.154,322.29Z" style="fill:rgb(34,30,31);"/>
        <path d="M772.201,330.181C778.382,330.651 777.015,330.435 776.533,335.501C775.656,335.492 774.777,335.481 773.9,335.471C773.035,334.292 772.168,333.113 771.301,331.93C771.6,331.347 771.901,330.764 772.201,330.181Z" style="fill:rgb(34,30,31);"/>
        <path d="M1172.07,334.655C1172.83,336.461 1167.09,368.468 1165.51,371.498C1165.35,359.486 1165.19,347.467 1165.03,335.456C1169.62,335.596 1170.04,336.163 1172.07,334.655Z" style="fill:rgb(34,30,31);"/>
        <path d="M468.98,328.548C469.859,328.558 470.737,328.568 471.617,328.578C475.863,332.706 479.507,340.493 478.44,347.109C477.858,346.809 477.275,346.513 476.693,346.212C473.237,340.899 469.781,335.589 466.324,330.275C467.209,329.702 468.095,329.124 468.98,328.548Z" style="fill:rgb(34,30,31);"/>
        <path d="M136.769,325.71C137.637,326.597 138.507,327.486 139.375,328.373C138.277,346.124 115.891,392.089 106.022,402.711C113.521,373.433 129.752,354.159 136.769,325.71Z" style="fill:rgb(34,30,31);"/>
        <path d="M180.642,332.354C182.975,333.259 185.311,334.166 187.643,335.068C185.532,352.417 210.503,371.693 208.097,392.43C207.507,392.718 206.918,393.003 206.328,393.287C197.165,374.436 187.999,355.579 178.835,336.725C179.438,335.27 180.039,333.813 180.642,332.354Z" style="fill:rgb(34,30,31);"/>
        <path d="M912.119,394.153C916.494,393.714 915.517,394.359 917.418,391.576C918.051,387.48 918.683,383.385 919.316,379.29C918.953,385.555 918.209,395.103 920.855,398.645C924.327,397.118 924.053,397.004 926.178,394.31C926.135,398.117 926.093,401.926 926.05,405.735C928.403,404.881 930.755,404.028 933.111,403.175C933.368,406.403 933.626,409.628 933.882,412.854C923.293,406.193 912.31,398.028 904.267,388.789C907.226,385.156 909.061,378.983 910.585,373.917C911.171,373.923 911.757,373.93 912.344,373.937C912.269,380.673 912.194,387.415 912.119,394.153Z" style="fill:rgb(34,30,31);"/>
        <path d="M56.645,495.33C56.029,497.959 55.413,500.591 54.799,503.217C41.289,506.291 27.773,509.363 14.264,512.434C14.965,508.307 15.456,505.094 17.887,502.804C20.549,505.938 20.856,504.489 22.3,501.097C29.688,495.925 21.856,489.433 25.134,483.549C25.408,485.313 25.682,487.072 25.953,488.832C26.27,486.787 26.586,484.74 26.902,482.691C27.168,485.04 27.436,487.385 27.701,489.731C30.79,474.058 32.492,432.291 30.186,424.717C31.059,425.314 31.932,425.91 32.804,426.506C32.67,421.004 33.063,418.54 35.559,415.987C35.553,416.573 35.546,417.159 35.54,417.746C42.415,431.992 18.674,497.813 41.596,504.829C42.537,501.04 42.293,498.066 45.21,496.078C49.022,495.827 52.834,495.581 56.645,495.33Z" style="fill:rgb(34,30,31);"/>
        <path d="M1113.89,428.05C1117.18,433.881 1118.33,452.742 1114.4,461.459C1112.64,461.44 1110.89,461.42 1109.13,461.401C1109.14,460.815 1109.14,460.228 1109.15,459.641C1108.94,452.315 1108.73,444.988 1108.52,437.661C1110.28,436.8 1112.05,435.941 1113.82,435.081C1113.84,432.742 1113.87,430.396 1113.89,428.05Z" style="fill:rgb(34,30,31);"/>
        <path d="M1101.49,437.582C1102.95,437.891 1104.41,438.202 1105.87,438.511C1106.09,445.251 1106.3,451.993 1106.52,458.733C1105.64,459.016 1104.75,459.299 1103.88,459.582C1103.08,452.249 1102.28,444.916 1101.49,437.582Z" style="fill:rgb(34,30,31);"/>
        <path d="M627.759,434.918C623.035,438.087 618.314,441.261 613.59,444.426C613.586,444.72 613.584,445.013 613.581,445.307C616.996,448.505 617.011,454.089 622.229,457.709C625.801,454.842 627.347,453.243 631.948,453.423C632.357,444.916 631.369,443.775 630.394,434.948C629.515,434.938 628.638,434.928 627.759,434.918Z" style="fill:rgb(34,30,31);"/>
        <path d="M1113.48,464.962C1116.98,474.138 1112.12,495.608 1107.79,502.694C1109.69,490.12 1111.58,477.537 1113.48,464.962Z" style="fill:rgb(34,30,31);"/>
        <path d="M1109.58,500.079C1112.46,506.931 1108.34,519.902 1103.16,523.737C1102.87,523.734 1102.57,523.731 1102.28,523.727C1104.71,515.843 1107.14,507.958 1109.58,500.079Z" style="fill:rgb(34,30,31);"/>
        <path d="M1067.35,503.122C1069.98,503.738 1072.61,504.353 1075.24,504.969C1072.83,512.204 1074.38,514.302 1075.05,521.665C1073.88,521.361 1072.72,521.053 1071.55,520.748C1071.89,516.648 1072.23,512.549 1072.57,508.452C1068.12,507.573 1068.87,507.194 1066.45,504.872C1066.75,504.288 1067.05,503.705 1067.35,503.122Z" style="fill:rgb(34,30,31);"/>
        <path d="M1114.65,517.713C1116.66,519.411 1118.87,522.01 1120.73,523.934C1118.39,523.908 1116.05,523.881 1113.7,523.855C1114.02,521.81 1114.34,519.763 1114.65,517.713Z" style="fill:rgb(34,30,31);"/>
        <path d="M1149.65,532.166C1151.41,532.187 1153.17,532.207 1154.92,532.226C1154.92,532.52 1154.91,532.813 1154.91,533.107C1150.73,547.187 1159.25,568.707 1153.47,583.189C1153.67,564.909 1147.37,551.598 1147,533.018C1147.88,532.734 1148.76,532.451 1149.65,532.166Z" style="fill:rgb(34,30,31);"/>
        <path d="M614.479,39.999C613.849,43.802 613.221,47.603 612.591,51.405C612.885,51.409 613.178,51.412 613.471,51.415C614.061,51.128 614.652,50.841 615.241,50.557C615.856,47.633 616.475,44.711 617.094,41.787C616.221,41.192 615.352,40.596 614.479,39.999Z" style="fill:white;"/>
        <path d="M623.246,41.855C622.356,43.018 621.463,44.18 620.571,45.341C620.532,48.856 620.492,52.373 620.453,55.888C621.333,55.898 622.211,55.908 623.088,55.918C623.115,53.574 623.141,51.229 623.168,48.886C624.304,45.365 624.763,43.929 623.246,41.855Z" style="fill:white;"/>
        <path d="M629.38,43.682C628.184,45.72 626.989,47.757 625.793,49.794C626.352,52.146 626.914,54.497 627.473,56.845C627.767,56.848 628.06,56.852 628.353,56.855C628.65,56.565 628.945,56.275 629.243,55.987C629.813,50.358 631.685,46.476 629.38,43.682Z" style="fill:white;"/>
        <path d="M639.922,43.8C638.262,45.769 638.314,45.015 637.242,48.165C636.961,46.991 636.681,45.815 636.401,44.64C634.927,45.21 633.456,45.779 631.986,46.349C631.274,51.526 631.865,53.726 632.724,58.662C633.314,58.374 633.905,58.09 634.494,57.804C635.114,54.881 635.732,51.957 636.352,49.033C637.199,51.974 638.042,54.914 638.889,57.853C639.182,57.856 639.472,57.859 639.765,57.863C640.726,52.831 642.182,46.999 639.922,43.8Z" style="fill:white;"/>
        <path d="M646.057,45.626C645.164,46.789 644.275,47.951 643.381,49.112C643.633,52.924 643.883,56.737 644.133,60.547C644.426,60.55 644.72,60.553 645.009,60.557C645.31,59.975 645.61,59.392 645.91,58.809C648.172,54.988 649.517,47.375 646.057,45.626Z" style="fill:white;"/>
        <path d="M652.202,46.575C650.568,51.259 650.414,56.121 651.155,61.506C651.448,61.509 651.741,61.512 652.035,61.516C652.953,57.717 653.876,53.918 654.793,50.119C653.931,48.939 653.064,47.755 652.202,46.575Z" style="fill:white;"/>
        <path d="M454.45,45.241C454.128,47.874 453.805,50.508 453.482,53.141C451.458,50.775 449.433,48.407 447.409,46.041C446.821,46.328 446.231,46.615 445.641,46.899C445.323,49.24 445.003,51.581 444.684,53.922C446.783,58.947 452.554,65.489 457.779,61.978C460.166,60.599 458.993,61.693 460.444,59.372C462.02,55.366 459.088,46.749 454.45,45.241Z" style="fill:white;"/>
        <path d="M617.784,58.495C616.885,60.535 615.982,62.577 615.084,64.618C618.286,66.118 621.495,67.619 624.697,69.119C621.83,75.982 625.3,93.781 623.496,98.112C627.432,99.224 626.328,98.198 627.851,101.677C628.152,101.093 628.45,100.51 628.751,99.929C630.601,91.454 632.453,82.977 634.307,74.502C636.65,74.819 638.989,75.139 641.327,75.458C641.601,77.219 641.875,78.98 642.149,80.741C646.591,76.103 651.043,71.464 655.487,66.828C654.91,65.941 654.334,65.057 653.76,64.17C639.692,64.349 627.556,62.505 617.784,58.495Z" style="fill:white;"/>
        <path d="M658.194,60.704C656.663,72.953 652.157,97.196 656.834,103.759C658.721,92.355 660.605,80.948 662.488,69.541C662.164,78.721 659.65,100.373 662.964,105.585C665.886,91.221 670.044,75.302 665.225,60.783C663.749,61.646 662.273,62.508 660.801,63.371C659.421,60.985 660.517,62.158 658.194,60.704Z" style="fill:white;"/>
        <path d="M605.433,62.751C603.924,66.544 602.418,70.336 600.911,74.128C604.699,74.049 603.061,77.248 606.986,81.228C606.468,75.069 605.951,68.909 605.433,62.751Z" style="fill:white;"/>
        <path d="M620.207,77.859C619.017,79.311 617.828,80.762 616.642,82.213C617.188,85.442 617.739,88.672 618.29,91.901C618.583,91.904 618.876,91.907 619.169,91.911C620.349,91.338 621.529,90.766 622.705,90.192C621.957,86.701 622.025,80.305 620.207,77.859Z" style="fill:white;"/>
        <path d="M645.625,84.295C641.321,89.52 638.514,91.652 638.397,101.794C646.967,98.496 646.411,94.168 648.259,84.325C647.38,84.315 646.5,84.305 645.625,84.295Z" style="fill:white;"/>
        <path d="M604.159,412.56C611.189,412.345 618.226,412.131 625.26,411.916C624.638,415.132 624.015,418.351 623.392,421.563C623.983,421.276 624.573,420.99 625.162,420.703C625.801,416.639 626.907,413.09 629.662,411.089C638.368,404.899 658.272,406.073 657.055,398.209C661.052,357.032 664.158,313.148 664.621,271.725C664.905,246.673 661.253,216.539 665.447,197.902C663.826,185.873 662.201,173.84 660.576,161.811C679.833,169.968 713.799,184.292 739.467,181.151C740.064,180.279 740.657,179.407 741.252,178.534C740.344,175.674 741.43,176.052 739.545,174.121C732.528,172.87 725.507,171.62 718.494,170.37C698.904,165.673 677.02,161.532 664.212,151.305C665.681,151.028 667.147,150.75 668.614,150.474C659.106,148.007 648.128,142.119 640.55,144.886C638.182,151.099 634.524,155.465 628.131,155.294C625.137,152.171 625.191,149.817 620.3,148.176C620.003,148.466 619.707,148.756 619.411,149.045C619.651,153.735 619.891,158.426 620.133,163.116C619.839,163.113 619.546,163.109 619.253,163.106C618.145,157.236 617.038,151.361 615.934,145.49C620.511,145.268 618.166,147.486 620.349,143.782C616.558,141.766 616.497,139.074 613.397,136.672C607.731,133.589 601.928,136.248 596.716,134.727C576.647,128.877 549.167,122.012 528.414,111.989C522.276,109.025 505.986,99.671 501.269,102.896C500.682,102.89 500.096,102.883 499.511,102.876C500.715,104.58 499.595,103.405 501.249,104.654C501.61,109.41 504.534,113.616 508.201,111.763C519.852,117.753 531.506,123.744 543.158,129.734C546.316,131.036 551.639,129.441 556.31,132.518C561.987,136.255 569.994,145.033 577.246,146.816C577.838,146.236 578.43,145.656 579.023,145.078C583.002,140.986 587.042,141.298 591.417,137.306C596.945,140.59 602.476,143.876 608.004,147.16C609.877,163 611.752,178.845 613.628,194.686C619.683,237.164 602.489,318.924 591.633,353.531C591.926,353.534 592.216,353.537 592.509,353.54C593.099,353.252 593.688,352.966 594.279,352.68C600.353,333.413 606.43,314.14 612.507,294.873C614.674,284.06 616.847,273.24 619.022,262.426C619.305,263.307 619.588,264.189 619.872,265.071C616.755,276.102 606.432,368.613 608.114,373.052C608.407,373.055 608.7,373.058 608.993,373.062C609.29,372.772 609.586,372.483 609.882,372.193C614.558,340.106 620.522,307.306 626.824,272.182C629.708,256.075 622.193,225.776 629.209,215.955C628.747,264.559 631.335,310.76 621.589,346.833C619.351,355.127 613.456,395.522 614.869,397.738C614.862,398.325 614.855,398.907 614.849,399.494C615.435,399.499 616.021,399.506 616.608,399.513C616.615,398.926 616.622,398.344 616.628,397.757C619.694,385.485 622.76,373.215 625.831,360.945C627.593,360.377 629.355,359.814 631.122,359.247C628.083,357.51 633.158,304.392 638,294.281C641.426,320.794 637.349,382.499 626.228,404.019C618.892,405.107 611.552,406.194 604.218,407.285C604.199,409.044 604.178,410.804 604.159,412.56Z" style="fill:white;"/>
        <path d="M629.601,102.574C628.695,104.909 627.789,107.243 626.882,109.575C627.177,109.578 627.47,109.582 627.762,109.585C628.646,109.304 629.529,109.02 630.408,108.736C630.708,108.153 631.008,107.57 631.307,106.989C630.737,105.518 630.168,104.045 629.601,102.574Z" style="fill:white;"/>
        <path d="M637.35,116.725C632.65,118.4 629.459,117.263 626.755,121C626.439,123.048 626.124,125.096 625.806,127.143C630.097,129.162 627.984,130.41 630.132,133.343C634.697,129.85 639.196,119.87 637.35,116.725Z" style="fill:white;"/>
        <path d="M795.989,157.172C791.558,160.345 787.127,163.519 782.7,166.693C782.697,166.986 782.693,167.279 782.69,167.573C789.063,168.241 788.166,169.797 791.418,172.943C794.06,172.387 796.706,171.83 799.343,171.274C799.65,170.105 799.957,168.937 800.263,167.769C796.31,161.681 800.752,166.24 802.14,157.241C801.256,157.525 800.375,157.809 799.491,158.091C798.325,157.786 797.159,157.479 795.989,157.172Z" style="fill:white;"/>
        <path d="M602.573,161.162C595.2,175.416 583.385,241.352 590.059,258.586C590.066,258 590.073,257.413 590.079,256.829C593.889,249.709 607.168,166.95 602.573,161.162Z" style="fill:white;"/>
        <path d="M356.277,256.849C351.995,263.638 356.843,263.557 358.755,270.94C360.79,278.796 355.398,281.675 354.195,285.83C351.272,295.921 356.749,311.521 358.244,316.639C358.833,316.351 359.423,316.065 360.011,315.778C359.251,305.227 358.49,294.667 357.73,284.112C358.711,278.109 364.051,276.927 364.928,269.252C362.878,263.636 361.106,259.776 356.277,256.849Z" style="fill:white;"/>
        <path d="M339.539,260.177C338.64,261.925 337.742,263.672 336.843,265.42C340.761,276.997 341.013,295.18 347.816,305.975C348.11,305.978 348.402,305.981 348.695,305.984C348.999,305.112 349.301,304.235 349.603,303.359C345.03,291.934 346.562,281.42 348.2,271.7C345.314,267.86 342.425,264.018 339.539,260.177Z" style="fill:white;"/>
        <path d="M328.955,263.574C327.164,266.485 325.374,269.394 323.583,272.305C323.304,273.585 334.183,311.255 335.435,312.871C335.737,311.996 336.04,311.119 336.342,310.242C334.9,291.34 332.051,277.319 328.955,263.574Z" style="fill:white;"/>
        <path d="M167.217,264.402C152.61,272.132 142.777,291.467 145.576,313.378C146.743,313.686 147.911,313.992 149.081,314.298C142.661,284.277 157.829,284.85 168.048,268.807C168.272,265.882 168.89,266.794 167.217,264.402Z" style="fill:white;"/>
        <path d="M313.095,266.914C311.891,269.83 310.687,272.747 309.481,275.663C312.043,282.429 314.606,289.198 317.165,295.964C316.839,298.89 316.514,301.818 316.188,304.745C316.194,304.159 316.201,303.572 316.207,302.985C321.782,296.609 317.542,272.228 313.095,266.914Z" style="fill:white;"/>
        <path d="M520.453,273.627C517.534,282.994 522.034,317.04 526.932,322.92C527.226,322.924 527.519,322.927 527.812,322.931C527.887,316.194 527.962,309.453 528.038,302.717C526.033,298.595 524.028,294.471 522.023,290.345C522.369,285.663 522.715,280.978 523.06,276.294C521.888,274.476 522.091,274.869 520.453,273.627Z" style="fill:white;"/>
        <path d="M514.29,274.438C505.4,292.318 514.803,301.475 517.287,321.057C517.578,321.06 517.871,321.064 518.165,321.067C518.411,313.802 514.29,274.438 514.29,274.438Z" style="fill:white;"/>
        <path d="M530.11,274.616C527.3,289.701 533.697,305.687 536.62,321.273C537.206,321.28 537.791,321.287 538.377,321.293C538.403,305.757 536.41,287.801 532.746,274.645C531.868,274.635 530.988,274.625 530.11,274.616Z" style="fill:white;"/>
        <path d="M172.412,271.492C165.255,276.956 144.681,296.686 156.15,310.865C156.444,310.869 156.737,310.872 157.029,310.874C150.508,280.308 170.882,288.876 179.413,274.208C177.08,273.301 174.746,272.397 172.412,271.492Z" style="fill:white;"/>
        <path d="M936.105,281.793C934.932,282.074 933.755,282.354 932.581,282.634C932.577,282.928 932.574,283.219 932.571,283.512C935.779,284.721 938.988,285.928 942.201,287.136C942.197,287.429 942.194,287.722 942.191,288.015C931.253,286.121 922.974,280.734 914.935,288.588C915.39,291.352 914.941,290.249 910.501,292.054C909.028,292.624 907.559,293.194 906.085,293.763C907.826,295.248 909.569,296.732 911.312,298.216C946.418,288.642 944.969,314.197 962,324.273C955.565,307.32 947.247,301.439 930.721,291.402C957.373,293.455 953.233,308.556 970.867,317.341C970.871,317.047 970.874,316.755 970.877,316.461C963.427,302.102 950.407,289.529 936.105,281.793Z" style="fill:white;"/>
        <path d="M542.364,279.146C537.917,291.464 538.557,309.386 544.51,323.118C545.098,322.832 545.688,322.547 546.278,322.261C544.974,307.891 543.668,293.517 542.364,279.146Z" style="fill:white;"/>
        <path d="M750.651,281.477C749.755,282.932 748.859,284.387 747.963,285.842C759.811,304.116 758.905,301.672 757.18,326.377C757.473,326.381 757.766,326.384 758.059,326.387C758.353,326.391 758.646,326.394 758.939,326.397C760.343,306.424 769.089,292.115 750.651,281.477Z" style="fill:white;"/>
        <path d="M726.011,283.839C722.321,291.46 729.936,319.195 735.209,326.132C735.966,311.136 730.974,295.421 726.011,283.839Z" style="fill:white;"/>
        <path d="M550.236,282.75C546.989,294.346 548.759,314.799 549.823,319.661C552.991,318.724 549.857,319.155 554.216,319.71C554.219,319.417 554.223,319.124 554.226,318.832C548.852,307.534 554.862,299.352 553.711,286.305C552.554,285.12 551.393,283.936 550.236,282.75Z" style="fill:white;"/>
        <path d="M737.411,286.602C736.808,288.061 736.205,289.519 735.601,290.978C739.69,298.33 746.475,305.617 748.518,314.853C748.762,319.248 749.006,323.65 749.251,328.045C749.543,328.048 749.837,328.051 750.13,328.055C750.87,311.768 751.455,293.953 740.033,287.511C739.161,287.208 738.284,286.905 737.411,286.602Z" style="fill:white;"/>
        <path d="M171.426,281.15C167.696,284.973 164.747,291.717 159.853,294.205C160.724,294.799 161.598,295.395 162.468,295.992C163.059,295.705 163.648,295.418 164.238,295.132C167.216,290.771 170.196,286.409 173.173,282.047C172.59,281.749 172.007,281.45 171.426,281.15Z" style="fill:white;"/>
        <path d="M718.052,288.143C717.571,297.911 716.429,308.56 719.537,312.77C720.679,306.507 722.007,292.331 718.052,288.143Z" style="fill:white;"/>
        <path d="M189.862,283.113C185.721,286.583 181.58,290.052 177.439,293.522C177.435,293.815 177.432,294.108 177.429,294.401C184.617,292.627 187.426,287.75 193.357,284.911C193.364,284.324 193.371,283.74 193.377,283.153C192.205,283.14 191.033,283.126 189.862,283.113Z" style="fill:white;"/>
        <path d="M190.69,287.518C187.129,291.58 183.568,295.641 180.007,299.704C180.885,299.714 181.765,299.724 182.643,299.733C180.528,305.566 178.41,311.408 176.295,317.242C177.18,316.665 178.066,316.089 178.951,315.512C178.346,317.265 177.74,319.014 177.134,320.763C181.702,317.99 180.845,316.109 182.417,319.948C193.746,314.741 194.047,309.722 200.182,303.447C197.46,294.277 196.533,291.486 190.69,287.518Z" style="fill:white;"/>
        <path d="M910.382,302.602C908.586,306.894 906.744,308.25 905.86,313.974C910.433,320.059 920.257,340.286 928.435,338.839C931.771,338.985 932.531,338.542 935.495,336.28C934.33,335.976 933.159,335.67 931.991,335.363C935.388,330.834 938.208,326.896 939.198,319.625C936.888,316.666 934.576,313.712 932.265,310.757C929.811,313.37 928.949,316.299 928.631,321.264C922.55,315.041 916.465,308.821 910.382,302.602Z" style="fill:white;"/>
        <path d="M173.884,296.998C172.71,297.278 171.535,297.558 170.359,297.837C170.349,298.715 170.339,299.596 170.33,300.473C168.74,305.442 169.869,308.619 171.96,311.918C172.836,312.221 173.71,312.524 174.587,312.829C174.887,312.245 175.185,311.661 175.484,311.082C176.684,308.748 177.881,306.416 179.079,304.087C175.122,301.664 175.116,297.512 173.884,296.998Z" style="fill:white;"/>
        <path d="M330.063,321.599C327.99,323.624 325.916,325.655 323.841,327.68C324.418,328.566 324.995,329.45 325.57,330.335C328.485,331.541 331.403,332.747 334.318,333.953C339.039,331.073 343.758,328.196 348.479,325.32C347.897,325.021 347.313,324.72 346.732,324.42C341.176,323.48 335.618,322.537 330.063,321.599Z" style="fill:white;"/>
        <path d="M536.581,324.785C536.574,325.372 536.567,325.957 536.561,326.544C536.567,325.957 536.574,325.372 536.581,324.785Z" style="fill:white;"/>
        <path d="M170.964,322.455C167.366,326.95 164.942,327.988 164.654,336.446C164.947,336.45 165.24,336.453 165.533,336.456C167.585,336.186 169.642,335.915 171.694,335.645C172.343,333.138 173.988,325.582 170.964,322.455Z" style="fill:white;"/>
        <path d="M535.67,327.415C530.76,329.832 525.679,330.19 522.411,334.296C522.408,334.59 522.405,334.883 522.401,335.177C529.501,334.52 534.243,332.828 538.289,329.203C537.709,328.61 537.13,328.018 536.551,327.424C536.257,327.421 535.964,327.417 535.67,327.415Z" style="fill:white;"/>
        <path d="M753.592,332.489C749.778,333.325 745.956,334.159 742.141,334.997C740.632,338.792 739.123,342.581 737.619,346.376C743.781,346.398 747.725,345.08 751.718,343.014C753.339,339.106 755.754,336.179 755.352,332.508C754.765,332.501 754.179,332.495 753.592,332.489Z" style="fill:white;"/>
        <path d="M962.742,336.584C959.779,339.19 956.821,341.797 953.862,344.396C953.839,346.448 953.816,348.501 953.793,350.55C958.152,348.478 965.873,340.164 962.742,336.584Z" style="fill:white;"/>
        <path d="M979.319,347.32C976.332,352.559 973.34,357.801 970.356,363.042C973.634,364.781 973.62,365.372 974.678,369.243C972.936,367.757 971.197,366.271 969.458,364.79C968.549,359.911 966.218,354.062 961.684,352.395C958.431,359.29 951.498,365.174 949.152,372.472C954.02,384.397 958.989,395.354 961.925,409.531C962.219,409.534 962.511,409.538 962.804,409.54C962.81,408.955 962.817,408.368 962.824,407.785C964.651,401.844 960.378,391.764 958.672,385.765C959.543,386.358 960.418,386.954 961.292,387.55C961.865,388.727 962.439,389.907 963.01,391.085C962.731,389.91 962.452,388.734 962.171,387.561C962.744,388.737 963.317,389.916 963.887,391.095C964.181,391.099 964.472,391.102 964.766,391.106C964.205,389.045 963.64,386.99 963.08,384.935C963.667,384.649 964.256,384.361 964.845,384.075C964.838,384.662 964.832,385.248 964.825,385.834C968.793,392.281 964.604,393.221 965.554,399.025C971.254,433.699 953.042,447.253 931.522,455.775C932.399,456.078 933.275,456.381 934.148,456.683C955.107,449.655 971.258,431.359 979.511,408.849C982.577,400.481 974.82,381.533 973.74,374.503C995.414,389.854 1003.07,415.124 1009.01,442.579C1011.91,455.931 1005.91,471.721 1013.88,479.55C1011.82,475.135 1009.01,464.091 1011.48,458.429C1012.29,464.589 1013.1,470.749 1013.91,476.911C1015.08,477.216 1016.24,477.523 1017.41,477.83C1010.66,466.009 1013.79,445.666 1013.52,432.958C1014.1,433.258 1014.68,433.558 1015.27,433.858C1018.13,440.041 1020.99,446.228 1023.85,452.415C1023.02,448.006 1022.19,443.607 1021.36,439.202C1021.66,438.911 1021.95,438.623 1022.25,438.332C1022.54,438.334 1022.84,438.338 1023.13,438.341C1026.81,441.613 1026.69,444.608 1029.18,447.197C1030.75,445.962 1029.31,446.411 1031.82,447.226C1034.74,457.465 1034.04,473.159 1034.11,478.016C1035.88,476.57 1037.65,475.126 1039.43,473.684C1043.73,464.104 1037.66,450.532 1035.38,443.754C1037.12,444.947 1038.86,446.135 1040.61,447.325C1040.33,446.152 1040.05,444.979 1039.77,443.803C1040.64,444.399 1041.51,444.996 1042.38,445.588C1037.29,415.915 1002,359.241 979.319,347.32Z" style="fill:white;"/>
        <path d="M320.55,464.761C324.076,463.921 327.6,463.081 331.126,462.241C331.109,463.706 331.093,465.173 331.076,466.638C333.427,466.079 335.778,465.518 338.128,464.958C338.68,467.893 339.233,470.829 339.787,473.767C329.808,475.413 319.826,477.057 309.847,478.705C309.286,468.877 295.978,470.245 293.336,461.818C292.736,462.985 292.138,464.151 291.54,465.317C288.037,464.105 284.535,462.893 281.033,461.68C280.201,468.758 278.162,467.327 280.035,472.219C287.636,474.522 296.04,473.521 302.807,479.505C293.593,479.466 286.957,477.361 280.885,474.866C280.882,475.158 280.878,475.449 280.875,475.741C281.46,475.747 282.046,475.753 282.633,475.76C283.504,476.357 284.377,476.953 285.249,477.549C285.246,477.843 285.242,478.136 285.239,478.429C282.893,478.696 280.546,478.963 278.199,479.23C278.195,479.523 278.192,479.817 278.189,480.11C292.307,480.418 311.166,490.987 322.854,494.672C322.85,494.965 322.847,495.259 322.844,495.552C321.079,496.114 319.315,496.681 317.551,497.248C317.548,497.542 317.544,497.831 317.541,498.124C319.295,498.437 321.049,498.75 322.804,499.063C316.58,500.454 307.899,502.914 299.934,500.566C302.555,502.064 305.174,503.555 307.794,505.047C306.327,505.324 304.857,505.6 303.39,505.877C311.17,506.086 330.007,508.479 329.727,508.811C334.253,507.446 336.974,504.995 335.956,501.85C337.21,497.944 337.865,491.656 339.601,490.464C341.916,488.269 342.825,488.018 347.538,487.916C347.772,493.191 348.007,498.465 348.242,503.744C358.438,516.007 372.503,514.003 381.598,507.632C372.153,506.164 366.864,507.403 361.454,501.254C378.051,501.426 376.549,500.692 389.585,500.692C389.933,502.983 388.723,501.16 390.436,503.339C393.81,501.216 393.652,502.599 398.384,499.909C399.646,495.731 400.518,489.854 403.824,485.028C404.696,485.623 405.569,486.22 406.441,486.816C407.619,490.498 408.094,490.244 410.776,492.137C411.368,491.556 411.961,490.98 412.554,490.4C414.328,488.957 416.102,487.51 417.876,486.065C412.107,477.331 404.622,464.01 396.22,457.697C388.091,458.758 376.269,462.101 371.503,467.09C374.306,469.382 372.444,467.484 370.586,470.593C377.125,468.083 391.252,466.174 395.193,470.869C379.079,470.981 362.96,471.094 346.847,471.207C346.004,467.975 345.162,464.744 344.318,461.507C345.205,460.935 346.089,460.359 346.975,459.782C347.557,460.082 348.14,460.381 348.723,460.681C349.278,463.323 349.835,465.969 350.392,468.611C350.983,468.031 351.576,467.451 352.169,466.874C351.322,463.932 350.477,460.994 349.63,458.055C349.924,458.058 350.216,458.062 350.51,458.065C350.803,458.069 351.095,458.072 351.388,458.075C351.832,462.171 352.674,465.4 354.794,467.781C358.033,466.354 361.274,464.924 364.512,463.494C361.14,433.278 342.449,406.134 352.332,373.704C349.017,376.07 347.729,377.207 346.961,382.434C346.379,382.133 345.796,381.834 345.212,381.535C345.249,378.316 345.285,375.09 345.321,371.868C354.054,371.179 364.158,363.967 365.672,359.79C365.082,360.077 364.495,360.363 363.905,360.649C364.771,356.589 365.906,355.017 368.388,352.789C368.772,366.358 393.375,407.48 398.262,432.231C398.858,431.357 399.453,430.488 400.049,429.615C400.895,432.549 401.741,435.492 402.587,438.43C400.186,414.33 389.351,354.661 375.546,341.445C356.661,352.507 315.428,347.529 295.464,350.217C295.959,353.789 290.888,360.333 289.106,368.604C289.212,385.302 289.318,402.01 289.423,418.707C287.292,426.006 285.157,433.307 283.026,440.609C283.614,440.322 284.204,440.035 284.794,439.748C286.921,432.741 289.052,425.733 291.18,418.726C295.329,397.631 293.287,372.555 298.06,353.762C307.399,356.148 310.136,358.954 320.862,358.412C319.962,360.158 319.065,361.908 318.166,363.658C321.971,363.992 325.776,364.326 329.582,364.66C323.136,364.213 317.627,364.108 314.611,367.129C317.537,367.456 320.464,367.782 323.389,368.107C321.319,369.843 319.249,371.576 317.18,373.31C319.612,404.559 322.209,433.075 320.55,464.761Z" style="fill:white;"/>
        <path d="M491.999,381.42C493.463,381.437 494.928,381.454 496.395,381.469C495.482,390.73 491.412,390.301 490.933,398.107C492.106,398.12 493.277,398.133 494.45,398.146C493.739,409.272 493.028,420.397 492.319,431.527C492.629,429.77 492.942,428.014 493.255,426.261C492.623,430.357 491.993,434.448 491.36,438.546C491.653,438.55 491.947,438.553 492.24,438.556C492.247,437.97 492.253,437.384 492.26,436.797C494.849,433.465 495.764,428.696 495.932,422.776C496.807,423.08 497.683,423.382 498.558,423.685C498.562,427.673 498.674,428.737 500.237,430.736C501.481,429.058 500.332,430.207 502.014,428.996C503.38,437.802 504.748,446.608 506.114,455.411C510.086,455.073 508.669,454.749 511.367,457.226C514.135,439.18 513.504,427.339 513.705,405.393C513.412,405.39 513.118,405.387 512.825,405.383C507.524,407.963 502.22,410.54 496.918,413.116C500.571,400.854 504.224,388.589 507.877,376.323C509.927,376.345 511.978,376.369 514.03,376.391C513.935,384.889 513.839,393.385 513.745,401.881C514.363,398.956 514.981,396.033 515.6,393.111C515.196,405.574 513.372,420.775 517.814,430.932C517.864,412.864 516.213,394.763 519.263,379.969C519.556,379.973 519.849,379.976 520.142,379.979C519.959,396.378 519.775,412.789 519.591,429.192C519.894,428.316 520.196,427.439 520.5,426.566C519.743,422.943 520.64,411.421 523.343,408.14C523.623,409.316 523.902,410.489 524.182,411.665C524.491,410.206 524.801,408.744 525.11,407.281C521.853,405.499 522.447,405.076 522.552,400.22C523.132,400.813 523.711,401.407 524.29,401.999C523.981,403.458 523.672,404.917 523.363,406.38C523.948,406.387 524.534,406.393 525.12,406.4C525.14,404.644 525.16,402.888 525.179,401.128C525.76,401.429 526.344,401.729 526.927,402.03C526.927,402.03 525.907,454.957 526.317,456.513C526.899,456.813 527.482,457.113 528.065,457.413C531.518,455.677 530.27,456.829 534.245,454.846C534.225,456.602 534.206,458.362 534.186,460.12C521.162,461.004 472.686,470.391 465.441,476.93C465.428,478.099 465.415,479.272 465.401,480.445C473.887,481.419 482.374,482.394 490.858,483.366C490.855,483.659 490.852,483.952 490.848,484.245C487.037,484.496 483.226,484.746 479.414,484.994C495.445,485.129 491.354,486.128 503.103,488.778C502.509,489.65 501.912,490.525 501.315,491.393C508.694,492.327 517.153,495.057 517.886,503.004C527.452,501.367 528.031,496.86 537.311,495.311C537.627,492.973 537.947,490.633 538.267,488.29C533.339,486.88 534.596,488.232 535.68,483.867C521.777,487.199 501.639,485.177 490.038,478.081C496.494,477.278 502.949,476.469 509.403,475.665C508.507,477.118 507.613,478.571 506.717,480.027C507.889,480.04 509.061,480.053 510.232,480.066C510.248,478.6 510.265,477.137 510.281,475.675C521.431,475.857 521.795,476.454 534.009,475.94C534.293,476.82 534.576,477.704 534.86,478.582C531.915,480.016 528.968,481.449 526.022,482.882C532.476,482.075 538.932,481.267 545.386,480.459C544.788,481.625 544.189,482.792 543.589,483.956C550.546,484.495 550.689,488.183 561.117,488.546C560.512,490.299 559.905,492.048 559.301,493.798C554.041,492.57 548.78,491.338 543.52,490.109C543.517,490.403 543.513,490.696 543.51,490.99C543.507,491.279 543.503,491.573 543.501,491.865C549.411,492.322 555.21,494.067 558.382,497.307C554.002,496.085 549.62,494.863 545.238,493.641C545.235,493.934 545.232,494.227 545.229,494.521C545.225,494.814 545.222,495.107 545.219,495.4C556.784,496.782 568.358,506.153 576.809,500.149C577.118,498.691 577.427,497.227 577.736,495.764C571.452,494.9 565.892,492.709 561.985,489.437C574.488,490.506 592.569,496.209 600.625,492.504C601.257,488.41 601.889,484.315 602.522,480.219C605.982,480.444 604.687,481.702 606.924,479.388C608.124,477.062 609.322,474.73 610.521,472.398C609.117,466.816 607.713,461.237 606.309,455.652C590.481,455.542 566.255,461.258 555.329,455.96C555.381,451.273 555.434,446.588 555.486,441.897C557.247,441.626 559.008,441.354 560.769,441.08C557.407,431.812 560.642,408.185 555.069,400.584C554.866,402.539 555.711,403.406 554.171,402.334C553.318,399.978 552.465,397.623 551.612,395.274C551.621,400.109 550.438,410.924 548.771,413.696C548.487,412.813 548.204,411.934 547.92,411.051C547.273,416.612 546.624,422.169 545.976,427.727C545.682,427.724 545.391,427.721 545.098,427.717C544.491,424.041 545.461,424.954 542.49,425.056C542.507,423.59 542.523,422.123 542.54,420.659C542.54,420.659 534.537,387.369 541.253,378.456C544.163,382.162 552.041,380.637 559.699,379.541C560.936,373.697 562.174,367.849 563.411,362.001C563.995,362.302 564.576,362.601 565.159,362.901C567.949,379.183 576.709,436.333 587.085,445.769C581.388,417.996 586.559,373.294 569.633,355.919C566.926,357.585 566.291,358.894 564.301,361.135C564.928,357.333 565.558,353.531 566.186,349.73C547.608,349.49 525.447,348.14 505.487,354.323C504.54,358.703 504.042,357.862 501.903,360.437C503.077,360.158 504.252,359.876 505.428,359.598C503.005,366.6 500.583,373.609 498.162,380.614C498.185,378.56 498.208,376.508 498.231,374.458C497.051,375.033 495.873,375.602 494.695,376.175C493.813,376.459 492.932,376.742 492.048,377.025C492.032,378.491 492.015,379.957 491.999,381.42Z" style="fill:white;"/>
        <path d="M859.691,355.65C858.205,357.388 856.718,359.131 855.236,360.874C855.819,360.881 856.406,360.887 856.992,360.894C861.072,362.99 865.15,365.084 869.228,367.183C867.39,376.768 868.554,382.937 876.99,380.452C876.038,375.9 875.29,371.184 875.413,364.616C879.529,363.334 881.894,361.559 884.267,358.56C884.27,358.266 884.273,357.973 884.277,357.679C876.084,357.004 867.883,356.327 859.691,355.65Z" style="fill:white;"/>
        <path d="M442.229,351.859C437.826,352.685 433.421,353.516 429.019,354.346C428.422,355.22 427.826,356.092 427.231,356.966C427.516,357.556 427.803,358.142 428.09,358.733C434.53,359.615 436.857,361.159 443.011,360.655C440.916,364.508 441.038,364.223 441.145,370.305C441.438,370.308 441.731,370.311 442.022,370.315C443.499,369.451 444.973,368.588 446.447,367.724C443.764,359.283 446.805,357.94 451.009,352.832C451.012,352.543 451.016,352.249 451.019,351.957C448.088,351.924 445.16,351.892 442.229,351.859Z" style="fill:white;"/>
        <path d="M752.781,483.66C723.626,483.688 716.054,471.247 692.3,468.92C692.003,469.211 691.707,469.499 691.414,469.79C692.08,485.406 687.379,487.048 672.728,489.794C673.015,490.385 673.301,490.975 673.589,491.564C675.934,491.59 678.277,491.617 680.619,491.643C682.8,487.798 682.465,486.701 688.588,486.457C688.566,488.506 688.543,490.559 688.52,492.612C689.968,489.317 690.343,488.705 693.849,487.392C693.253,488.265 692.661,489.139 692.065,490.011C709.002,490.914 721.346,497.239 737.673,498.433C744.621,498.94 755.955,496.234 761.423,496.94C762.254,501.344 763.085,505.748 763.916,510.15C765.96,510.173 768.012,510.196 770.066,510.219C768.883,511.085 767.7,511.953 766.517,512.818C781.539,511.603 785.944,512.974 799.918,513.192C799.234,511.572 799.261,512.426 799.937,511.433C808.723,511.532 817.513,511.629 826.299,511.728C828.488,508.569 828.324,508.775 832.509,506.525C834.96,497.179 837.411,487.826 839.854,478.482C825.072,478.203 828.683,471.284 818.88,467.698C804.826,462.554 798.639,476.504 783.718,468.183C785.134,470.782 786.071,470.832 788.065,472.628C788.062,472.92 788.058,473.214 788.055,473.507C780.892,474.639 774.407,476.703 772.127,482.997C768.611,482.957 765.095,482.917 761.581,482.878C762.341,467.361 763.1,451.837 763.861,436.321C767.117,437.505 765.339,437.177 770.012,436.389C770.683,428.78 771.355,421.168 772.027,413.558C771.415,415.894 770.801,418.233 770.189,420.569C770.525,416.764 770.86,412.959 771.197,409.153C770.903,409.15 770.61,409.147 770.317,409.143C767.893,416.148 765.471,423.153 763.051,430.156C762.927,414.923 762.805,399.682 762.681,384.449C776.408,385.085 778.704,382.657 785.611,377.673C793.918,394.759 802.224,411.847 810.528,428.931C810.547,427.175 810.567,425.416 810.586,423.657C811.697,428.944 812.81,434.233 813.925,439.517C814.218,439.52 814.511,439.523 814.804,439.527C814.34,411.311 788.747,373.628 797.268,356.706C796.689,356.411 796.106,356.11 795.523,355.811C769.243,362.867 737.406,351.626 714.585,362.817C708.449,385.069 688.408,398.957 692.713,432.009C693.006,432.012 693.299,432.015 693.592,432.019C694.475,431.443 695.361,430.866 696.248,430.289C696.144,410.518 704.478,376.834 718.877,371.652C718.865,372.825 718.851,373.998 718.838,375.17C722.124,373.72 724.789,373.005 726.757,374.379C723.223,376.096 719.689,377.813 716.154,379.533C724.657,378.748 733.164,377.964 741.668,377.182C741.37,377.766 741.07,378.345 740.77,378.928C737.547,378.892 734.327,378.856 731.101,378.82C731.387,379.41 731.673,379.999 731.96,380.589C736.913,380.288 737.691,379.856 740.741,381.568C740.968,387.429 741.196,393.291 741.423,399.153C733.085,402.833 726.383,405.942 722.791,414.763C723.953,425.047 719.518,432.917 721.567,445.515C724.532,444.235 724.048,444.244 727.731,444.704C728.494,428.06 737.416,417.924 740.504,402.659C740.797,402.663 741.09,402.665 741.383,402.668C740.945,420.174 737.495,461.686 742.357,472.997C742.293,467.492 743.103,463.199 746.006,460.731C746.96,463.752 745.919,462.396 750.381,462.539C751.182,469.58 751.98,476.62 752.781,483.66Z" style="fill:white;"/>
        <path d="M166.234,352.287C164.764,352.857 163.293,353.427 161.819,353.997C158.384,360.954 155.001,363.741 156.371,369.754C151.758,369.642 151.794,369.013 150.17,374.081C147.966,371.903 149.704,373.002 147.552,372.291C144.885,379.701 140.453,390.072 134.994,395.004C135.3,393.835 135.606,392.669 135.911,391.499C135.027,392.076 134.14,392.653 133.255,393.226C127.262,405.171 121.268,417.118 115.274,429.065C116.757,427.618 118.238,426.168 119.719,424.718C118.215,428.217 116.711,431.716 115.206,435.215C115.795,434.932 116.385,434.646 116.974,434.358C118.772,430.86 120.569,427.368 122.366,423.868C122.658,423.872 122.951,423.874 123.243,423.877C121.44,427.96 119.637,432.042 117.833,436.123C118.127,436.127 118.42,436.13 118.712,436.133C125.088,433.373 127.906,433.623 134.551,434.555C134.539,435.725 134.525,436.898 134.512,438.066C134.519,437.481 134.525,436.898 134.532,436.311C135.419,435.442 136.309,434.575 137.196,433.706C137.856,434.757 136.837,434.781 138.066,434.594C149.495,423.614 152.256,403.288 162.287,390.918C162.58,390.921 162.873,390.924 163.167,390.928C166.881,399.17 170.6,407.416 174.314,415.659C174.328,414.489 174.341,413.32 174.354,412.147C171.517,403.911 168.678,395.674 165.841,387.438C167.005,388.038 168.172,388.637 169.336,389.237C168.764,388.058 168.191,386.877 167.619,385.702C166.734,386.275 165.847,386.851 164.963,387.428C166.457,384.81 167.951,382.191 169.445,379.568C169.438,380.154 169.432,380.741 169.425,381.328C178.098,390.566 177.622,406.619 185.73,416.666C190.726,416.737 196.657,428.648 200.483,433.533C200.213,431.478 199.943,429.425 199.673,427.373C200.833,428.559 201.991,429.741 203.149,430.923C198.665,403.084 177.932,368.862 169.75,352.327C168.578,352.313 167.405,352.3 166.234,352.287Z" style="fill:white;"/>
        <path d="M242.635,358.413C238.8,361.052 230.851,360.399 227.654,361.764C227.94,362.354 228.228,362.943 228.515,363.53C238.834,367.408 238.151,370.723 241.501,381.253C242.382,380.97 243.265,380.688 244.146,380.404C244.739,379.823 245.332,379.247 245.923,378.667C245.681,374.269 245.437,369.874 245.192,365.473C249.634,363.956 250.882,362.075 253.182,358.531C249.667,358.492 246.149,358.452 242.635,358.413Z" style="fill:white;"/>
        <path d="M447.197,379.164C443.275,381.415 441.559,381.188 439.22,385.226C440.391,385.239 441.564,385.252 442.735,385.265C445.275,383.175 447.95,382.198 447.197,379.164Z" style="fill:white;"/>
        <path d="M301.251,382.802C299.188,383.952 297.124,385.102 295.062,386.248C295.629,387.717 296.199,389.191 296.77,390.663C299.761,389.687 298.885,389.742 302.053,389.843C301.786,387.497 301.519,385.151 301.251,382.802Z" style="fill:white;"/>
        <path d="M881.229,394.563C878.274,396.582 875.321,398.602 872.37,400.619C872.957,400.624 873.543,400.631 874.129,400.638C873.83,401.221 873.53,401.8 873.23,402.384C874.406,402.104 875.58,401.823 876.754,401.544C879.804,399.797 880.989,398.444 882.108,394.573C881.815,394.569 881.521,394.566 881.229,394.563Z" style="fill:white;"/>
        <path d="M245.805,389.213C245.498,390.676 245.188,392.139 244.878,393.598C245.171,393.601 245.465,393.605 245.756,393.608C247.232,392.745 248.706,391.885 250.18,391.022C250.187,390.436 250.193,389.849 250.2,389.263C248.735,389.247 247.272,389.23 245.805,389.213Z" style="fill:white;"/>
        <path d="M464.618,393.42C457.168,397.78 445.054,397.651 435.567,397.488C434.954,399.827 434.342,402.166 433.731,404.498C436.36,405.115 438.991,405.73 441.619,406.347C433.406,415.031 435.716,431.19 437.623,449.37C437.916,449.373 438.209,449.375 438.502,449.379C438.835,445.871 439.166,442.356 439.498,438.843C442.023,440.008 439.73,441.038 442.126,439.751C444.778,444.489 446.307,445.518 446.372,452.986C449.603,452.143 452.837,451.298 456.069,450.456C456.226,436.394 456.384,422.333 456.541,408.274C463.785,405.807 466.3,400.435 469.88,394.36C469.884,394.067 469.887,393.773 469.89,393.48C468.133,393.459 466.375,393.44 464.618,393.42Z" style="fill:white;"/>
        <path d="M988.405,399.281C991.806,409.862 995.2,420.451 998.601,431.036C999.134,419.179 995.904,403.549 988.405,399.281Z" style="fill:white;"/>
        <path d="M311.659,395.222C308.747,405.123 308.122,460.001 311.713,469.054C312.303,468.768 312.891,468.481 313.481,468.199C314.196,451.201 318.386,407.858 311.659,395.222Z" style="fill:white;"/>
        <path d="M958.486,402.458C958.68,411.25 958.875,420.044 959.068,428.837C959.659,428.55 960.249,428.264 960.838,427.977C961.368,420.995 962.319,406.885 958.486,402.458Z" style="fill:white;"/>
        <path d="M262.434,395.55C262.725,395.846 263.015,396.144 263.305,396.44C254.026,404.222 235.055,398.123 224.586,400.403C227.045,402.794 233.68,404.377 235.933,407.56C245.328,420.849 243.543,443.932 258.349,446.484C254.383,434.429 250.414,422.372 246.449,410.314C246.452,410.021 246.455,409.728 246.459,409.434C249.974,409.473 253.489,409.513 257.004,409.552C259.979,405.488 262.956,401.418 265.93,397.349C264.765,396.749 263.601,396.151 262.434,395.55Z" style="fill:white;"/>
        <path d="M425,399.129C423.219,401.162 421.439,403.191 419.658,405.22C414.857,413.252 414.973,431.487 416.63,440.343C417.214,440.35 417.801,440.357 418.387,440.364C419.681,425.235 428.829,413.989 425.88,399.139C425.586,399.135 425.293,399.132 425,399.129Z" style="fill:white;"/>
        <path d="M884.564,410.421C884.249,406.877 884.315,406.982 882.867,405.13C874.464,410.308 873.875,414.179 859.931,412.787C859.795,417.527 859.405,417.543 857.193,421.542C861.551,418.805 859.89,417.76 866.022,418.125C867.07,419.7 869.893,421.242 872.104,424.345C868.158,436.042 874.927,444.041 878.742,459.579C882.918,458.338 883.059,458.581 886.691,456.152C886.226,445.307 885.76,434.461 885.295,423.613C889.24,421.761 901.212,413.92 903.932,408.003C897.478,408.81 891.02,409.615 884.564,410.421Z" style="fill:white;"/>
        <path d="M903.882,412.397C902.921,419.343 900.564,426.415 906.268,434.398C907.451,433.532 908.633,432.665 909.817,431.798C909.821,431.505 909.824,431.212 909.827,430.922C907.843,424.746 905.863,418.571 903.882,412.397Z" style="fill:white;"/>
        <path d="M603.131,425.735C603.403,427.784 603.672,429.839 603.943,431.896C604.815,432.2 605.693,432.501 606.564,432.805C630.439,444.496 655.706,417.44 669.182,414.164C669.185,413.871 669.189,413.581 669.192,413.288C645.086,414.016 631.111,425.711 603.131,425.735Z" style="fill:white;"/>
        <path d="M849.351,415.303C846.631,422.887 843.91,430.478 841.186,438.062C842.073,437.489 842.96,436.912 843.844,436.335C846.168,431.158 853.088,418.318 850.221,416.189C849.932,415.893 849.642,415.599 849.351,415.303Z" style="fill:white;"/>
        <path d="M307.001,418.903C307.483,427.992 307.969,437.082 308.453,446.168C308.746,446.171 309.04,446.174 309.332,446.178C309.103,442.917 311.299,423.135 307.001,418.903Z" style="fill:white;"/>
        <path d="M673.436,426.521C665.767,431.122 658.097,435.723 650.428,440.327C651.902,439.756 653.374,439.186 654.847,438.616C652.398,442.644 652.068,445.896 652.94,451.778C653.523,452.078 654.106,452.377 654.69,452.677C660.83,451.097 664.377,448.05 668.838,444.925C669.207,435.373 675.011,427.62 673.436,426.521Z" style="fill:white;"/>
        <path d="M304.206,432.934C304.2,433.52 304.193,434.107 304.187,434.693C304.193,434.107 304.2,433.52 304.206,432.934Z" style="fill:white;"/>
        <path d="M193.443,434.334C192.544,436.081 191.647,437.827 190.747,439.577C193.97,439.613 197.193,439.649 200.415,439.685C200.725,438.221 201.034,436.761 201.342,435.302C198.71,434.98 196.076,434.657 193.443,434.334Z" style="fill:white;"/>
        <path d="M490.372,448.204C489.036,452.083 488.388,451.783 491.183,454.364C492.046,455.835 492.908,457.312 493.771,458.788C494.949,458.215 496.127,457.641 497.306,457.069C496.726,456.475 496.147,455.881 495.569,455.292C494.485,451.249 493.183,450.334 490.372,448.204Z" style="fill:white;"/>
        <path d="M149.374,445.264C139.514,449.18 128.1,448.732 119.424,451.083C122.762,451.698 123.666,452.054 125.546,453.79C123.908,456.038 127.014,454.975 124.637,456.418C116.112,461.319 106.858,462.85 102.49,471.989C102.18,473.449 101.871,474.911 101.563,476.373C101.854,476.377 102.147,476.38 102.44,476.384C111.939,471.79 115.987,462.395 126.385,457.314C126.369,458.781 126.353,460.242 126.336,461.708C128.98,461.153 131.624,460.595 134.266,460.039C133.667,461.205 133.069,462.372 132.469,463.538C138.428,462.488 144.334,460.457 148.278,464.593C142.988,465.998 137.699,467.401 132.41,468.807C142.328,468.01 163.302,465.588 170.18,470.99C170.157,473.04 170.134,475.088 170.111,477.141C176.786,477.552 177.977,476.878 181.546,476.389C180.95,477.262 180.356,478.135 179.76,479.008C180.937,478.435 182.117,477.862 183.293,477.289C185.932,474.99 186.93,470.856 187.807,466.792C200.191,466.047 217.147,477.779 223.731,476.861C223.734,476.568 223.737,476.274 223.741,475.982C205.564,454.722 188.227,445.328 149.374,445.264Z" style="fill:white;"/>
        <path d="M421.735,455.343C425.302,458.336 434.319,463.36 439.243,461.694C441.229,460.479 441.468,459.984 442.797,458.217C435.778,457.26 428.756,456.301 421.735,455.343Z" style="fill:white;"/>
        <path d="M912.979,463.478C904.524,469.549 901.918,473.533 897.801,484.402C903.559,480.947 915.011,471.334 912.979,463.478Z" style="fill:white;"/>
        <path d="M474.397,462.087C475.551,463.563 476.708,465.042 477.863,466.522C476.398,466.505 474.933,466.489 473.469,466.472C476.091,467.674 478.716,468.873 481.339,470.077C483.232,469.7 486.768,468.345 485.772,466.61C481.981,465.102 478.189,463.592 474.397,462.087Z" style="fill:white;"/>
        <path d="M477.863,466.522C478.449,466.528 479.036,466.535 479.62,466.541C479.036,466.535 478.449,466.528 477.863,466.522Z" style="fill:white;"/>
        <path d="M953.296,473.599C937.148,476.638 920.999,479.684 904.852,482.721C912.537,484.381 921.484,488.648 929.371,490.907C928.773,491.781 928.176,492.653 927.582,493.527C936.871,493.376 935.305,493.22 943.391,494.582C943.092,495.166 942.792,495.746 942.492,496.329C938.09,497.161 933.686,497.987 929.282,498.818C929.279,499.111 929.275,499.404 929.272,499.697C936.311,498.896 943.352,498.095 950.393,497.298C950.073,499.636 949.753,501.979 949.433,504.318C967.867,506.574 986.304,508.832 1004.74,511.088C1006.27,503.091 1008.06,493.167 1012.97,482.175C1012.68,481.878 1012.39,481.585 1012.1,481.29C992.502,478.724 972.895,476.159 953.296,473.599Z" style="fill:white;"/>
        <path d="M624.168,509.466C624.585,524.063 649.14,556.439 661.377,561.742C668.87,549.573 693.555,546.294 697.776,529.628C696.293,531.078 694.811,532.523 693.328,533.973C693.033,527.153 693.126,521.446 696.144,518.183C695.264,518.173 694.384,518.164 693.504,518.154C694.981,517.29 696.457,516.429 697.933,515.568C696.183,514.67 694.434,513.773 692.688,512.872C669.85,511.737 647.002,510.602 624.168,509.466Z" style="fill:white;"/>
        <path d="M858.771,516.489C852.238,518.911 841.623,515.061 836.76,519.756C836.455,520.925 836.147,522.095 835.841,523.264C842.248,524.786 855.778,523.159 862.233,520.92C862.77,525.322 863.308,529.724 863.844,534.122C863.551,534.118 863.258,534.115 862.965,534.111C862.119,531.177 861.272,528.235 860.428,525.295C859.255,525.576 858.08,525.853 856.903,526.133C856.877,528.478 856.851,530.824 856.825,533.164C856.241,532.867 855.659,532.567 855.075,532.267C852.766,529.313 850.456,526.355 848.142,523.402C847.85,523.399 847.556,523.395 847.263,523.392C847.704,527.789 871.189,566.878 874.007,568.516C878.119,567.686 882.23,566.852 886.341,566.017C886.622,567.195 886.901,568.367 887.182,569.543C888.064,569.259 888.945,568.976 889.828,568.693C898.439,549.905 913.7,536.797 922.905,518.962C901.527,518.138 880.145,517.312 858.771,516.489Z" style="fill:white;"/>
        <path d="M56.347,511.026C51.345,513.022 46.34,515.018 41.338,517.008C41.653,520.359 40.339,518.092 42.178,520.538C42.461,521.419 42.744,522.3 43.026,523.182C49.192,522.082 55.358,520.978 61.522,519.874C61.828,518.704 62.135,517.535 62.441,516.368C61.874,514.605 61.308,512.84 60.742,511.075C59.278,511.058 57.812,511.042 56.347,511.026Z" style="fill:white;"/>
        <path d="M946.596,522.745C948.948,525.389 957.215,527.398 963.272,524.69C957.711,524.042 952.153,523.393 946.596,522.745Z" style="fill:white;"/>
        <path d="M237.202,529.751C237.218,528.285 237.235,526.819 237.251,525.355C227.771,525.525 210.173,528.883 203.864,524.102C203.867,523.812 203.871,523.518 203.874,523.226C216.447,525.285 231.619,525.102 240.815,520.999C208.015,506.978 154.675,545.557 139.337,556.78C139.334,557.073 139.331,557.367 139.327,557.66C140.202,557.963 141.078,558.266 141.953,558.57C146.86,555.977 148.798,555.999 155.156,556.957C154.002,554.515 154.602,556.694 154.306,554.313C170.276,554.631 177.088,554.213 195.622,553.895C195.618,554.188 195.615,554.482 195.612,554.775C195.025,554.768 194.439,554.761 193.855,554.755C192.374,556.202 190.891,557.65 189.41,559.101C199.117,557.571 247.983,532.575 252.201,524.643C243.21,527.435 237.889,532.094 229.235,534.933C229.241,534.346 229.248,533.759 229.254,533.177C229.268,532.003 229.281,530.834 229.293,529.663C229.584,529.665 229.878,529.669 230.171,529.672C232.515,529.699 234.859,529.725 237.202,529.751Z" style="fill:white;"/>
        <path d="M446.474,522.42C435.044,522.879 423.61,523.338 412.18,523.797C413.556,526.844 413.374,530.594 413.829,533.486C427.111,540.508 433.115,559.567 445.093,567.233C443.948,564.876 442.803,562.522 441.657,560.163C443.126,559.885 444.594,559.61 446.061,559.332C447.482,561.519 448.337,562.269 450.407,563.777C450.698,563.781 450.992,563.784 451.285,563.787C454.049,548.32 470.04,535.544 479.832,526.313C479.835,526.019 479.838,525.727 479.841,525.434C479.551,525.138 479.261,524.84 478.971,524.544C468.141,523.836 457.305,523.128 446.474,522.42Z" style="fill:white;"/>
        <path d="M815.586,526.549C805.321,527.609 795.051,528.667 784.791,529.725C786.829,530.624 788.869,531.526 790.912,532.426C797.864,531.792 810.004,531.549 819.013,534.499C821.389,531.89 823.76,529.282 826.132,526.667C822.621,526.628 819.102,526.589 815.586,526.549Z" style="fill:white;"/>
        <path d="M1092.36,535.798C1092.63,537.561 1092.9,539.325 1093.17,541.086C1098.37,543.551 1109.2,551.68 1112.44,547.453C1112.45,545.988 1112.47,544.52 1112.49,543.058C1105.78,540.64 1099.07,538.219 1092.36,535.798Z" style="fill:white;"/>
    </g>
</svg>
